<svg width="24" height="24" viewBox="0 0 24 24" fill="none" xmlns="http://www.w3.org/2000/svg">
<path d="M7 0H4C2.93913 0 1.92172 0.421427 1.17157 1.17157C0.421427 1.92172 0 2.93913 0 4L0 7C0 8.06087 0.421427 9.07828 1.17157 9.82843C1.92172 10.5786 2.93913 11 4 11H7C8.06087 11 9.07828 10.5786 9.82843 9.82843C10.5786 9.07828 11 8.06087 11 7V4C11 2.93913 10.5786 1.92172 9.82843 1.17157C9.07828 0.421427 8.06087 0 7 0V0ZM9 7C9 7.53043 8.78929 8.03914 8.41421 8.41421C8.03914 8.78929 7.53043 9 7 9H4C3.46957 9 2.96086 8.78929 2.58579 8.41421C2.21071 8.03914 2 7.53043 2 7V4C2 3.46957 2.21071 2.96086 2.58579 2.58579C2.96086 2.21071 3.46957 2 4 2H7C7.53043 2 8.03914 2.21071 8.41421 2.58579C8.78929 2.96086 9 3.46957 9 4V7ZM7 13H4C2.93913 13 1.92172 13.4214 1.17157 14.1716C0.421427 14.9217 0 15.9391 0 17L0 20C0 21.0609 0.421427 22.0783 1.17157 22.8284C1.92172 23.5786 2.93913 24 4 24H7C8.06087 24 9.07828 23.5786 9.82843 22.8284C10.5786 22.0783 11 21.0609 11 20V17C11 15.9391 10.5786 14.9217 9.82843 14.1716C9.07828 13.4214 8.06087 13 7 13ZM9 20C9 20.5304 8.78929 21.0391 8.41421 21.4142C8.03914 21.7893 7.53043 22 7 22H4C3.46957 22 2.96086 21.7893 2.58579 21.4142C2.21071 21.0391 2 20.5304 2 20V17C2 16.4696 2.21071 15.9609 2.58579 15.5858C2.96086 15.2107 3.46957 15 4 15H7C7.53043 15 8.03914 15.2107 8.41421 15.5858C8.78929 15.9609 9 16.4696 9 17V20ZM22.293 19.049L20 21.339V2.633L22.293 4.923C22.3859 5.01584 22.4962 5.08948 22.6176 5.1397C22.7389 5.18992 22.869 5.21575 23.0004 5.2157C23.1317 5.21566 23.2618 5.18974 23.3831 5.13943C23.5044 5.08912 23.6147 5.01541 23.7075 4.9225C23.8003 4.82959 23.874 4.7193 23.9242 4.59793C23.9744 4.47657 24.0002 4.3465 24.0002 4.21515C24.0002 4.0838 23.9742 3.95374 23.9239 3.83241C23.8736 3.71108 23.7999 3.60084 23.707 3.508L21.12 0.925C20.5575 0.363198 19.795 0.0476399 19 0.0476399C18.205 0.0476399 17.4425 0.363198 16.88 0.925L14.293 3.508C14.2001 3.60084 14.1264 3.71108 14.0761 3.83241C14.0258 3.95374 13.9998 4.0838 13.9998 4.21515C13.9998 4.3465 14.0256 4.47657 14.0758 4.59793C14.126 4.7193 14.1997 4.82959 14.2925 4.9225C14.3853 5.01541 14.4956 5.08912 14.6169 5.13943C14.7382 5.18974 14.8683 5.21566 14.9996 5.2157C15.131 5.21575 15.2611 5.18992 15.3824 5.1397C15.5038 5.08948 15.6141 5.01584 15.707 4.923L18 2.633V21.339L15.707 19.049C15.6141 18.9562 15.5038 18.8825 15.3824 18.8323C15.2611 18.7821 15.131 18.7563 14.9996 18.7563C14.8683 18.7563 14.7382 18.7823 14.6169 18.8326C14.4956 18.8829 14.3853 18.9566 14.2925 19.0495C14.1997 19.1424 14.126 19.2527 14.0758 19.3741C14.0256 19.4954 13.9998 19.6255 13.9998 19.7569C13.9998 19.8882 14.0258 20.0183 14.0761 20.1396C14.1264 20.2609 14.2001 20.3712 14.293 20.464L16.88 23.047C17.4425 23.6088 18.205 23.9244 19 23.9244C19.795 23.9244 20.5575 23.6088 21.12 23.047L23.707 20.464C23.7999 20.3712 23.8736 20.2609 23.9239 20.1396C23.9742 20.0183 24.0002 19.8882 24.0002 19.7569C24.0002 19.6255 23.9744 19.4954 23.9242 19.3741C23.874 19.2527 23.8003 19.1424 23.7075 19.0495C23.6147 18.9566 23.5044 18.8829 23.3831 18.8326C23.2618 18.7823 23.1317 18.7563 23.0004 18.7563C22.869 18.7563 22.7389 18.7821 22.6176 18.8323C22.4962 18.8825 22.3859 18.9562 22.293 19.049Z" fill="#35465E"/>
</svg>
